<?xml version="1.0" encoding="utf-8"?>
<!-- Generator: Adobe Illustrator 21.0.0, SVG Export Plug-In . SVG Version: 6.00 Build 0)  -->
<svg version="1.1" xmlns="http://www.w3.org/2000/svg" xmlns:xlink="http://www.w3.org/1999/xlink" x="0px" y="0px"
	 viewBox="0 0 500 500" style="enable-background:new 0 0 500 500;" xml:space="preserve">
<style type="text/css">
	.st0{display:none;}
	.st1{display:inline;}
	.st2{fill:#FF0000;}
	.st3{clip-path:url(#SVGID_2_);}
	.st4{fill-rule:evenodd;clip-rule:evenodd;fill:#1B3069;}
	.st5{fill-rule:evenodd;clip-rule:evenodd;fill:#336699;}
</style>
<g id="心_1_" class="st0">
	<g id="心" class="st1">
		<path class="st2" d="M324,72c-39.8,0-72,32.2-72,72c0-39.8-32.2-72-72-72s-72,32.2-72,72c0,99,144,108,144,189
			c0-81,144-81,144-189C396,104.2,363.8,72,324,72z"/>
	</g>
</g>
<g id="图层_2">
	<g id="sau_x5F_logo.psd">
		<defs>
			<rect id="SVGID_1_" width="500" height="500"/>
		</defs>
		<clipPath id="SVGID_2_">
			<use xlink:href="#SVGID_1_"  style="overflow:visible;"/>
		</clipPath>
		<g id="SAU-logo" class="st3">
			<g id="形状_1">
				<g>
					<path class="st4" d="M415.5,234.2c-16-44.8-78.5-45.4-123-52.1c-19.9-3-46-9.2-62.6-18.8c-20.4-11.7-32.5-29.7-27.1-39.6
						C218.6,95,283.1,100.6,316,126c24,18.5,14.6,38.5,19.9,43.4c4.3-4.2,64.1-64.4,64.1-64.4s3.6-2.2,2-4c-1.8-2.1-5,2-5,2l-23,23
						c0,0-48.7-38.5-121.2-33.5c-68.3,4.7-71.4,59.7-66.7,73c5.9,16.8,32.6,34.6,73,50c41.2,15.7,94.4,21.3,106.4,50
						c22.8,54.8-50.1,81.3-50.1,81.3S440,303,415.5,234.2z"/>
				</g>
			</g>
			<g id="形状_2">
				<g>
					<path class="st4" d="M266,322c-19.3-9.3-60.9-23.1-60.9-23.1l37.5-37.5c0,0,3.9-3,2.3-4.4c-1.8-1.6-6,1-6,1l-40.1,38.8
						c0,0-41-10.7-85.8,6.2c-41.7,15.8-55.3,42.6-44.1,53c17.3,16,46.8,9,71-4c23.5-12.6,42-31,42-31c0.9-0.3,42.9,15.6,54.1,34.1
						c15.7,26.1,16.7,45.9,16.7,45.9s8.2-19.2,24.2-35c16-15.8,34.2-17.1,34.2-17.1S286,331.7,266,322z M131,351
						c-25.8,9.6-47.4,8.9-56,1c-10.2-9.4,9.3-27.6,33-36c28.7-10.2,60.7,0.9,69,3C170.4,326,142.8,346.6,131,351z"/>
				</g>
			</g>
			<g id="形状_3">
				<g>
					<path class="st5" d="M326.7,251.9c-7.3-4.1-85.7-28.2-127.8-53.4c-39.7-23.7-25.5-57.5-28-62.5c-1.2-2.4-33.2,18.8-21,59
						c13.4,44,152.3,61.5,161.2,101.8c5.9,26.6-20.9,31.3-20.9,31.3s49.8,5.1,62.6-31.3C360.3,275.7,343.9,261.6,326.7,251.9z"/>
				</g>
			</g>
			<g id="形状_4">
				<g>
					<path class="st5" d="M407.1,125.8c0,0-62.2,47.6-60.5,50c4.6,0.5,77.5-33,81.3-37.5C427.7,135.5,407.1,125.8,407.1,125.8z"/>
				</g>
			</g>
		</g>
	</g>
</g>
</svg>
