<?xml version="1.0" encoding="utf-8"?>
<!-- Generator: Adobe Illustrator 21.0.0, SVG Export Plug-In . SVG Version: 6.00 Build 0)  -->
<svg version="1.1" xmlns="http://www.w3.org/2000/svg" xmlns:xlink="http://www.w3.org/1999/xlink" x="0px" y="0px"
	 viewBox="0 0 500 500" style="enable-background:new 0 0 500 500;" xml:space="preserve">
<style type="text/css">
	.st2{fill:#FF0000;}
	.st3{fill:#1B3069;}
	.st4{fill:#336698;}
	.st5{fill:#FEFEFE;}
</style>
<g id="sau_logo">
	<g id="sau_logo">
		<path class="st3" d="M340,336c7.4-5.6,14.6-11.5,20.5-18.9c17.2-21.4,14.5-57.3-15.8-72c-17.8-8.6-36.7-13.7-55.5-19.2
			c-25-7.3-49.2-16.3-71.6-29.8c-5-3-9.8-6.3-14.3-10c-16.8-13.6-23.8-29.3-17.5-50c7.2-24.1,25.5-35.8,49.3-40.9
			c32.5-7,65.9-1.7,96.9,9.2c14.5,5.1,28.2,11.8,40.8,20.7c2.4,1.7,3.5,1,5.3-0.8c6.5-6.7,13.2-13.2,19.8-19.8
			c0.9-0.9,1.9-1.8,3-2.6c0.9-0.7,2.1-0.8,2.7,0.1c0.6,0.8,0,1.9-0.6,2.5c-1.4,1.4-2.9,2.8-4.3,4.2c-19.4,19.5-38.8,39-58.2,58.5
			c-1,1-2.6,2.3-3.4,1.9c-1.5-0.7-1.4-2-1.6-3.5c-0.4-2.8-0.4-5.6-0.7-8.5c-1.2-11.9-6.4-21.8-16-28.9c-27-19.9-54.5-27.3-87.5-20.8
			c-8.3,1.6-18.2,6.1-24,12.6c-4.8,5.3-5.6,11.1-2.7,17.5c4.1,9.1,11,15.8,18.8,21.6c15.8,11.6,34.3,16.5,53.1,20.7
			c22.1,5,44.8,6.2,67.1,10.1c15.8,2.7,31.4,6.3,45.5,14.2c19.9,11.1,31.1,27.8,30.7,51.1c-0.2,12.6-5.4,23.5-12.9,33.4
			c-14.1,18.6-33,31.2-53.1,42.3c-4.1,2.2-8.3,4.1-12.5,6.2C340.1,337.7,338.8,337,340,336z"/>
		<path class="st4" d="M294.4,328.8c0.9-1.5,2.1-1.6,3.1-2c16.6-7,21-25.8,9.3-39.6c-6.3-7.4-14.1-11.4-22.5-15.9
			c-19.7-10.5-35.2-15.6-55.8-24c-17.9-7.3-41.8-20.1-57.8-32.3c-22-17.4-25.1-54.4-7.6-72.6c2.4-2.2,5.2-6.1,8.1-4.8
			c2.4,1.1,0.7,5.8,0.4,8.8c-2.4,22.4,8.5,39,27.1,50.8c19.3,12.3,40.4,20.9,61.7,29.2c20.4,8,39.3,15.8,59.9,23.2
			c8.6,3.1,16.2,7.8,23,13.7c16.2,14.2,17,32.8,2.2,48.6c-9.1,9.7-20.9,13.9-33.7,15.9C306.2,328.8,300.5,329.3,294.4,328.8z"/>
		<path class="st3" d="M205.5,300.6c38,12.1,72,26.4,105.4,49.9c-26,9.2-34.3,14.3-57.1,51.2c-0.8-3.7-1.3-7-2.2-10.2
			c-3.1-12.2-6.1-23.6-18.2-38.5c-15.5-17.1-32.5-24.6-46.9-29.1c-2.8-1.2-4.5-0.4-6.5,1.5c-17.4,15.8-36.2,29.3-58.7,37
			c-11.4,3.9-23.1,6.2-35.3,3.7c-4.3-0.9-8.3-2.5-11.9-4.9c-8.2-5.4-11.3-11.9-7.4-21.1c3.4-8.1,10.4-15,17.2-20.2
			c18.4-13.8,37.5-19.3,59-22.8c17.9-2.9,35.8-2.8,53.6,0.8c2.7,0.5,4.3-0.4,6.1-2.2c11.5-11.3,23.2-22.5,34.7-33.8
			c2.3-2.2,4.5-3.7,5.8-2.3c1.5,1.5-0.1,3.6-1.9,5.3C229.7,276.7,218,288.2,205.5,300.6z"/>
		<path class="st4" d="M429.7,139.3c-26.7,14.5-53.4,26.9-81.2,37.1c5.5-6.9,44.2-37.5,56.6-47.5c2.2-1.8,4-2.1,6.6-0.7
			C417.5,131.6,422.6,135,429.7,139.3z"/>
		<path class="st5" d="M177.7,320.8c-2.9,2.6-5.1,4.7-7.6,6.6c-14.4,11-28.7,22-46.2,28c-11.9,3.4-23.6,6-37.1,4.3
			c-5.8-1.1-10.4-2.5-13.5-8.3c-3.2-6,2.4-14.4,6.7-18.3c16.4-15.3,36.1-20.2,58.4-19.5C151.6,313.9,164.3,316.8,177.7,320.8z"/>
	</g>
</g>
</svg>
