<?xml version="1.0" encoding="utf-8"?>
<!-- Generator: Adobe Illustrator 21.0.0, SVG Export Plug-In . SVG Version: 6.00 Build 0)  -->
<svg version="1.1" id="图层_1" xmlns="http://www.w3.org/2000/svg" xmlns:xlink="http://www.w3.org/1999/xlink" x="0px" y="0px"
	 viewBox="0 0 288 288" style="enable-background:new 0 0 288 288;" xml:space="preserve">
<style type="text/css">
	.st0{fill:#1B3069;}
	.st1{fill:#336698;}
	.st2{fill:#FEFEFE;}
</style>
<g id="sau_x5F_logo">
	<path class="st0" d="M196.7,206.2c4.6-3.9,9-8,12.6-13.2c10.6-15,8.9-40-9.7-50.2c-11-6-22.7-9.5-34.3-13.4
		c-15.4-5.1-30.4-11.4-44.2-20.8c-3.1-2.1-6-4.4-8.8-7c-10.4-9.5-14.7-20.4-10.8-34.9c4.5-16.8,15.7-25,30.4-28.6
		c20-4.9,40.6-1.2,59.8,6.4c8.9,3.6,17.4,8.2,25.2,14.5c1.5,1.2,2.2,0.7,3.2-0.5c4-4.7,8.1-9.2,12.2-13.8c0.6-0.7,1.2-1.3,1.8-1.8
		c0.6-0.5,1.3-0.6,1.7,0.1c0.3,0.5,0,1.3-0.4,1.7c-0.9,1-1.8,1.9-2.6,2.9c-12,13.6-23.9,27.2-35.9,40.8c-0.6,0.7-1.6,1.6-2.1,1.4
		c-0.9-0.5-0.9-1.4-1-2.5c-0.2-2-0.2-3.9-0.4-5.9c-0.7-8.3-4-15.2-9.9-20.1c-16.7-13.9-33.6-19-54-14.5c-5.1,1.1-11.2,4.3-14.8,8.8
		c-2.9,3.7-3.4,7.7-1.6,12.2c2.5,6.4,6.8,11,11.6,15.1c9.8,8.1,21.2,11.5,32.7,14.4c13.7,3.5,27.7,4.3,41.4,7
		c9.7,1.9,19.4,4.4,28.1,9.9c12.3,7.7,19.2,19.4,19,35.6c-0.1,8.8-3.4,16.4-8,23.3c-8.7,13-20.4,21.8-32.8,29.5
		c-2.5,1.6-5.1,2.9-7.7,4.3C196.8,207.3,195.9,206.9,196.7,206.2z"/>
	<path class="st1" d="M168.6,201.2c0.6-1,1.3-1.1,1.9-1.4c10.2-4.9,13-18,5.8-27.6c-3.9-5.2-8.7-8-13.9-11.1
		c-12.2-7.3-21.7-10.9-34.4-16.7c-11-5.1-25.8-14-35.7-22.5c-13.6-12.1-15.5-38-4.7-50.6c1.5-1.5,3.2-4.2,5-3.3
		c1.5,0.8,0.5,4,0.3,6.1c-1.5,15.6,5.2,27.2,16.7,35.5c11.9,8.6,24.9,14.6,38,20.4c12.6,5.5,24.2,11,37,16.2
		c5.3,2.2,10,5.4,14.2,9.6c10,9.9,10.5,22.9,1.3,33.9c-5.6,6.8-12.9,9.7-20.8,11.1C175.8,201.1,172.3,201.5,168.6,201.2z"/>
	<path class="st0" d="M113.7,181.5c23.4,8.5,44.5,18.4,65,34.8c-16,6.4-21.2,10-35.2,35.7c-0.5-2.6-0.8-4.9-1.3-7.2
		c-1.9-8.5-3.7-16.5-11.2-26.9c-9.6-11.9-20.1-17.2-28.9-20.3c-1.8-0.8-2.8-0.3-4,1c-10.7,11-22.3,20.4-36.2,25.9
		c-7.1,2.8-14.3,4.4-21.8,2.6c-2.6-0.6-5.1-1.7-7.3-3.4c-5.1-3.8-6.9-8.3-4.6-14.7c2.1-5.6,6.4-10.4,10.6-14.1
		C50,185.2,61.8,181.4,75,179c11-2,22.1-1.9,33.1,0.6c1.6,0.4,2.7-0.3,3.8-1.5c7.1-7.9,14.3-15.7,21.4-23.6c1.4-1.5,2.8-2.6,3.6-1.6
		c0.9,1.1-0.1,2.5-1.2,3.7C128.6,164.8,121.4,172.8,113.7,181.5z"/>
	<path class="st1" d="M252,68.9c-16.5,10.1-33,18.7-50.1,25.9c3.4-4.8,27.2-26.1,34.9-33.1c1.4-1.3,2.5-1.5,4.1-0.5
		C244.5,63.5,247.6,65.9,252,68.9z"/>
	<path class="st2" d="M96.6,195.6c-1.8,1.8-3.2,3.3-4.7,4.6c-8.9,7.7-17.7,15.3-28.5,19.5c-7.3,2.4-14.6,4.2-22.9,3
		c-3.6-0.8-6.4-1.8-8.4-5.8c-2-4.2,1.5-10,4.1-12.8c10.1-10.7,22.3-14.1,36-13.6C80.4,190.7,88.2,192.8,96.6,195.6z"/>
</g>
</svg>
